:SAMPLES-PER-SECOND 30
:FULLY-SPECIFIED
:DEGREES
553
root  2.00608 40.8338 -2.89741 136.287 -89.8435 -138.944
RightUpLeg  4.9068 -9.59757 -7.81876
RightLeg  5.86646 -6.22183 3.33759
RightFoot  -4.65739 -0.095029 1.10866
RightToes  0.00048216 0.542163 -0.142577
Spine  -1.43971 1.04867 2.33766
Spine1  5.32984 1.71775 -2.85968
HEad  -7.7441 2.77941 -2.60311
LeftShoulder1  0.974644 -2.77422 -7.95091
LeftArm  -21.4882 13.9986 -4.78956
LeftForeArm  14.3813 -9.12524 -0.689387
LeftHand  -0.25398 0.0180481 5.50724
RightShoulder  0.781448 1.2696 8.99087
RightArm  -24.7024 -4.61823 3.42225
RightForeArm  -4.63019 7.69737 2.95787
RightHand  -1.00429 2.03505 -15.8326
LeftUpLeg  6.28871 4.21798 -0.0934502
LeftLeg  2.3742 9.65215 -4.0858
LeftFoot  -5.96015 -0.150307 3.96137
LeftToes  1.06248e-005 4.65855e-005 -8.185e-006
554
root  2.04106 40.8415 -2.94654 119.629 -89.9209 -122.207
RightUpLeg  4.80362 -9.51669 -7.72477
RightLeg  5.77744 -6.45081 3.31805
RightFoot  -4.53916 -0.0945184 1.10074
RightToes  0.00048216 0.542163 -0.142577
Spine  -1.43777 0.923005 2.07481
Spine1  5.11784 1.57618 -2.77201
HEad  -7.63946 2.76244 -2.6171
LeftShoulder1  0.885436 -2.51671 -7.03396
LeftArm  -21.8337 12.9991 -4.15997
LeftForeArm  13.7362 -8.59986 -0.585267
LeftHand  -0.25398 0.0180481 5.50724
RightShoulder  0.716995 1.11399 8.04435
RightArm  -24.8407 -4.10959 2.89638
RightForeArm  -5.8714 7.60211 3.00942
RightHand  -1.29032 3.18446 -17.6318
LeftUpLeg  6.13557 4.19646 -0.0731002
LeftLeg  2.36538 9.58365 -4.0783
LeftFoot  -5.85839 -0.157541 4.02613
LeftToes  1.06248e-005 4.65855e-005 -8.185e-006
555
root  2.07222 40.8487 -2.98331 121.172 -89.8889 -123.744
RightUpLeg  4.8304 -9.43118 -7.62497
RightLeg  5.59715 -6.42376 3.33947
RightFoot  -4.40851 -0.0990501 1.17106
RightToes  0.00048216 0.542163 -0.142577
Spine  -1.2288 0.856461 2.08109
Spine1  4.76121 1.52273 -2.86505
HEad  -7.43518 2.82465 -2.51903
LeftShoulder1  0.837514 -2.35982 -6.55618
LeftArm  -22.0723 12.082 -3.54677
LeftForeArm  13.4599 -8.35366 -0.553554
LeftHand  -0.25398 0.0180481 5.50724
RightShoulder  0.678516 1.03999 7.37629
RightArm  -24.9306 -3.76806 2.55156
RightForeArm  -7.25676 7.26805 3.02159
RightHand  -1.57921 4.16963 -19.3523
LeftUpLeg  6.08558 4.2282 0.00428724
LeftLeg  2.34918 9.54983 -4.07868
LeftFoot  -5.78892 -0.162159 4.06231
LeftToes  1.06248e-005 4.65855e-005 -8.185e-006
556
root  2.09765 40.8562 -3.02423 141.202 -89.8218 -143.801
RightUpLeg  4.93596 -9.40058 -7.56862
RightLeg  5.34712 -6.36204 3.41496
RightFoot  -4.33744 -0.0997651 1.18216
RightToes  0.00048216 0.542163 -0.142577
Spine  -1.02566 0.85926 2.0498
Spine1  4.5117 1.53395 -2.92168
HEad  -7.21929 2.93895 -2.32906
LeftShoulder1  0.812865 -2.32473 -6.17891
LeftArm  -22.2325 11.2717 -3.2328
LeftForeArm  13.6289 -8.17889 -0.551273
LeftHand  -0.25398 0.0180481 5.50724
RightShoulder  0.65186 0.949432 7.04549
RightArm  -24.9014 -3.48366 2.34992
RightForeArm  -8.24488 6.75696 3.00338
RightHand  -1.74783 4.60961 -20.4452
LeftUpLeg  6.11273 4.23041 0.0657959
LeftLeg  2.26846 9.59814 -4.04839
LeftFoot  -5.68751 -0.16312 3.99664
LeftToes  1.06248e-005 4.65855e-005 -8.185e-006
557
root  2.12517 40.8658 -3.07771 161.028 -89.7812 -163.596
RightUpLeg  4.96382 -9.37031 -7.51088
RightLeg  5.09563 -6.4418 3.44984
RightFoot  -4.27479 -0.0937169 1.0883
RightToes  0.00048216 0.542163 -0.142577
Spine  -0.936809 0.874308 1.78748
Spine1  4.40127 1.52824 -2.78919
HEad  -7.03835 3.14757 -2.17371
LeftShoulder1  0.809428 -2.41789 -5.87028
LeftArm  -22.2648 10.5997 -3.17315
LeftForeArm  13.8054 -7.82922 -0.553835
LeftHand  -0.25398 0.0180481 5.50724
RightShoulder  0.645772 0.916068 7.01432
RightArm  -24.5911 -3.24522 2.28967
RightForeArm  -8.65283 6.09632 3.0014
RightHand  -1.80812 4.73929 -20.8626
LeftUpLeg  6.11422 4.15017 0.046755
LeftLeg  2.0851 9.73315 -3.99292
LeftFoot  -5.51829 -0.164873 3.89467
LeftToes  1.06248e-005 4.65855e-005 -8.185e-006
